<svg width="360" height="420" viewBox="0 0 360 420" xmlns="http://www.w3.org/2000/svg">
  <defs>
    <linearGradient id="bg" x1="0%" y1="0%" x2="100%" y2="100%">
      <stop offset="0%" stop-color="#E5E8FF"/>
      <stop offset="100%" stop-color="#C7D9FF"/>
    </linearGradient>
    <linearGradient id="cap" x1="0%" y1="0%" x2="100%" y2="100%">
      <stop offset="0%" stop-color="#7C6AF0"/>
      <stop offset="100%" stop-color="#9BA7FF"/>
    </linearGradient>
    <linearGradient id="box" x1="0%" y1="0%" x2="100%" y2="100%">
      <stop offset="0%" stop-color="#E6B676"/>
      <stop offset="100%" stop-color="#F4D8A4"/>
    </linearGradient>
    <linearGradient id="shadow" x1="0%" y1="0%" x2="100%" y2="0%">
      <stop offset="0%" stop-color="#D4DCF2" stop-opacity="0.9"/>
      <stop offset="100%" stop-color="#EAF0FF" stop-opacity="0.4"/>
    </linearGradient>
    <filter id="blur" x="-20%" y="-20%" width="140%" height="140%">
      <feGaussianBlur stdDeviation="12" />
    </filter>
  </defs>
  <rect x="0" y="0" width="360" height="420" rx="32" fill="url(#bg)"/>
  <path d="M40 360 C120 340 220 360 320 340 L320 360 Q200 400 40 360Z" fill="url(#shadow)" filter="url(#blur)"/>
  <g>
    <circle cx="188" cy="96" r="36" fill="#F7F8FB"/>
    <path d="M152 132 Q188 118 222 132 L214 156 Q188 148 160 156Z" fill="url(#cap)"/>
    <rect x="150" y="146" width="76" height="118" rx="30" fill="#F9FAFD" stroke="#E2E6F6" stroke-width="3"/>
    <ellipse cx="140" cy="264" rx="28" ry="52" fill="#EEF1FF"/>
    <ellipse cx="236" cy="264" rx="28" ry="52" fill="#EEF1FF"/>
    <rect x="144" y="246" width="20" height="74" rx="10" fill="#E5E8F5"/>
    <rect x="220" y="246" width="20" height="74" rx="10" fill="#E5E8F5"/>
    <rect x="186" y="214" width="12" height="46" rx="6" fill="#E0E5F2"/>
    <rect x="182" y="254" width="18" height="56" rx="9" fill="#D7DCF0"/>
    <circle cx="154" cy="92" r="12" fill="url(#cap)"/>
    <path d="M190 184 C200 190 206 204 210 224 L190 228Z" fill="#D7DCF0"/>
  </g>
  <g transform="translate(196 218) rotate(-6)">
    <rect x="0" y="0" width="104" height="88" rx="16" fill="url(#box)" stroke="#D39C58" stroke-width="2"/>
    <rect x="10" y="16" width="84" height="56" rx="12" fill="#EEC586" opacity="0.9"/>
    <path d="M10 44 L94 44" stroke="#D39C58" stroke-width="3" stroke-dasharray="8 6"/>
    <circle cx="20" cy="64" r="6" fill="#C88C48"/>
  </g>
  <g transform="translate(190 284) rotate(6)">
    <rect x="0" y="0" width="96" height="44" rx="14" fill="#E7ECFF" stroke="#CBD5F5" stroke-width="2"/>
    <circle cx="22" cy="28" r="12" fill="#7C6AF0"/>
    <circle cx="70" cy="28" r="12" fill="#7C6AF0"/>
    <rect x="26" y="12" width="40" height="8" rx="4" fill="#C6D1FF"/>
  </g>
</svg>
